<?xml version="1.0" encoding="UTF-8"?>
<svg width="26px" height="22px" viewBox="0 0 26 22" version="1.1" xmlns="http://www.w3.org/2000/svg" xmlns:xlink="http://www.w3.org/1999/xlink">
    <!-- Generator: Sketch 60.1 (88133) - https://sketch.com -->
    <title>add-contact</title>
    <desc>Created with Sketch.</desc>
    <g id="Page-1" stroke="none" stroke-width="1" fill="none" fill-rule="evenodd">
        <g id="add-contact">
            <g id="Group">
                <circle id="Oval" fill="#C7B0DD" cx="10.5" cy="4.5" r="4.5"></circle>
                <path d="M10.5,11 C16.2989899,11 21,13.8488468 21,19.5952381 C21,20.0718156 20.9676654,20.5409094 20.9050515,21.0004829 L0.0949485422,21.0004829 C0.0323346262,20.5409094 0,20.0718156 0,19.5952381 C0,13.8488468 4.70101013,11 10.5,11 Z" id="Combined-Shape" fill="#6A29A4"></path>
            </g>
            <circle id="Oval" stroke="#FFFFFF" fill="#6A29A4" cx="20" cy="16" r="5.5"></circle>
            <path d="M20,13 C20.2761424,13 20.5,13.2238576 20.5,13.5 L20.5,15.5 L22.5,15.5 C22.7761424,15.5 23,15.7238576 23,16 C23,16.2761424 22.7761424,16.5 22.5,16.5 L20.5,16.5 L20.5,18.5 C20.5,18.7761424 20.2761424,19 20,19 C19.7238576,19 19.5,18.7761424 19.5,18.5 L19.5,16.5 L17.5,16.5 C17.2238576,16.5 17,16.2761424 17,16 C17,15.7238576 17.2238576,15.5 17.5,15.5 L19.5,15.5 L19.5,13.5 C19.5,13.2238576 19.7238576,13 20,13 Z" id="Combined-Shape" fill="#FFFFFF"></path>
        </g>
    </g>
</svg>