<?xml version="1.0" encoding="UTF-8"?>
<svg width="14px" height="14px" viewBox="0 0 14 14" version="1.1" xmlns="http://www.w3.org/2000/svg" xmlns:xlink="http://www.w3.org/1999/xlink">
    <!-- Generator: Sketch 60.1 (88133) - https://sketch.com -->
    <title>add</title>
    <desc>Created with Sketch.</desc>
    <defs>
        <path d="M9,2 C9.55228475,2 10,2.44994876 10,3.00684547 L10,8 L14.9931545,8 C15.509501,8 15.9350657,8.38272018 15.9932262,8.88266744 L16,9 C16,9.55228475 15.5500512,10 14.9931545,10 L10,10 L10,14.9931545 C10,15.509501 9.61727982,15.9350657 9.11733256,15.9932262 L9,16 C8.44771525,16 8,15.5500512 8,14.9931545 L8,10 L3.00684547,10 C2.49049903,10 2.06493432,9.61727982 2.00677379,9.11733256 L2,9 C2,8.44771525 2.44994876,8 3.00684547,8 L8,8 L8,3.00684547 C8,2.49049903 8.38272018,2.06493432 8.88266744,2.00677379 L9,2 Z" id="path-1"></path>
    </defs>
    <g id="Page-1" stroke="none" stroke-width="1" fill="none" fill-rule="evenodd">
        <g id="add" transform="translate(-2.000000, -2.000000)">
            <g id="Plus">
                <mask id="mask-2" fill="white">
                    <use xlink:href="#path-1"></use>
                </mask>
                <use id="Combined-Shape" fill="#969EA7" xlink:href="#path-1"></use>
                <g id="-↳🎨swatch" mask="url(#mask-2)" fill="#6A29A4">
                    <rect id="Rectangle-2" x="0" y="0" width="18" height="18"></rect>
                </g>
            </g>
        </g>
    </g>
</svg>