<?xml version="1.0" encoding="UTF-8"?>
<svg width="21px" height="21px" viewBox="0 0 21 21" version="1.1" xmlns="http://www.w3.org/2000/svg" xmlns:xlink="http://www.w3.org/1999/xlink">
    <!-- Generator: Sketch 60.1 (88133) - https://sketch.com -->
    <title>phone</title>
    <desc>Created with Sketch.</desc>
    <g id="Page-1" stroke="none" stroke-width="1" fill="none" fill-rule="evenodd">
        <g id="phone">
            <rect id="Rectangle" fill-opacity="0.0883413462" fill="#FFFFFF" x="0" y="0" width="21" height="21"></rect>
            <rect id="Rectangle" fill="#6A29A4" x="3" y="0" width="15" height="21" rx="4"></rect>
            <path d="M4.25,17.6875 L4.25,3.96875 C4.25,2.8641805 5.1454305,1.96875 6.25,1.96875 L14.75,1.96875 C15.8545695,1.96875 16.75,2.8641805 16.75,3.96875 L16.75,17.6875 C16.75,18.7920695 15.8545695,19.6875 14.75,19.6875 L6.25,19.6875 C5.1454305,19.6875 4.25,18.7920695 4.25,17.6875 Z" id="Shape" fill="#6A29A4"></path>
            <path d="M7.19999999,12.46875 C7.64182779,12.46875 8,12.8269222 8,13.26875 L8,14.29375 C8,14.7355778 7.64182779,15.09375 7.19999999,15.09375 L6.30000001,15.09375 C5.85817221,15.09375 5.5,14.7355778 5.5,14.29375 L5.5,13.26875 C5.5,12.8269222 5.85817221,12.46875 6.30000001,12.46875 L7.19999999,12.46875 Z M10.95,12.46875 C11.3918278,12.46875 11.75,12.8269222 11.75,13.26875 L11.75,14.29375 C11.75,14.7355778 11.3918278,15.09375 10.95,15.09375 L10.05,15.09375 C9.60817221,15.09375 9.25,14.7355778 9.25,14.29375 L9.25,13.26875 C9.25,12.8269222 9.60817221,12.46875 10.05,12.46875 L10.95,12.46875 Z M14.7,12.46875 C15.1418278,12.46875 15.5,12.8269222 15.5,13.26875 L15.5,14.29375 C15.5,14.7355778 15.1418278,15.09375 14.7,15.09375 L13.8,15.09375 C13.3581722,15.09375 13,14.7355778 13,14.29375 L13,13.26875 C13,12.8269222 13.3581722,12.46875 13.8,12.46875 L14.7,12.46875 Z M7.19999999,8.53125 C7.64182779,8.53125 8,8.88942221 8,9.33125001 L8,10.35625 C8,10.7980778 7.64182779,11.15625 7.19999999,11.15625 L6.30000001,11.15625 C5.85817221,11.15625 5.5,10.7980778 5.5,10.35625 L5.5,9.33125001 C5.5,8.88942221 5.85817221,8.53125 6.30000001,8.53125 L7.19999999,8.53125 Z M10.95,8.53125 C11.3918278,8.53125 11.75,8.88942221 11.75,9.33125001 L11.75,10.35625 C11.75,10.7980778 11.3918278,11.15625 10.95,11.15625 L10.05,11.15625 C9.60817221,11.15625 9.25,10.7980778 9.25,10.35625 L9.25,9.33125001 C9.25,8.88942221 9.60817221,8.53125 10.05,8.53125 L10.95,8.53125 Z M14.7,8.53125 C15.1418278,8.53125 15.5,8.88942221 15.5,9.33125001 L15.5,10.35625 C15.5,10.7980778 15.1418278,11.15625 14.7,11.15625 L13.8,11.15625 C13.3581722,11.15625 13,10.7980778 13,10.35625 L13,9.33125001 C13,8.88942221 13.3581722,8.53125 13.8,8.53125 L14.7,8.53125 Z M7.19999999,4.59375 C7.64182779,4.59375 8,4.95192221 8,5.39375001 L8,6.41874999 C8,6.86057779 7.64182779,7.21875 7.19999999,7.21875 L6.30000001,7.21875 C5.85817221,7.21875 5.5,6.86057779 5.5,6.41874999 L5.5,5.39375001 C5.5,4.95192221 5.85817221,4.59375 6.30000001,4.59375 L7.19999999,4.59375 Z M10.95,4.59375 C11.3918278,4.59375 11.75,4.95192221 11.75,5.39375001 L11.75,6.41874999 C11.75,6.86057779 11.3918278,7.21875 10.95,7.21875 L10.05,7.21875 C9.60817221,7.21875 9.25,6.86057779 9.25,6.41874999 L9.25,5.39375001 C9.25,4.95192221 9.60817221,4.59375 10.05,4.59375 L10.95,4.59375 Z M14.7,4.59375 C15.1418278,4.59375 15.5,4.95192221 15.5,5.39375001 L15.5,6.41874999 C15.5,6.86057779 15.1418278,7.21875 14.7,7.21875 L13.8,7.21875 C13.3581722,7.21875 13,6.86057779 13,6.41874999 L13,5.39375001 C13,4.95192221 13.3581722,4.59375 13.8,4.59375 L14.7,4.59375 Z" id="Combined-Shape" fill="#C7B0DD"></path>
            <rect id="Rectangle-2" fill="#C7B0DD" x="8" y="2" width="5" height="1" rx="0.5"></rect>
        </g>
    </g>
</svg>